<?xml version="1.0" encoding="utf-8"?>
<!-- Generator: Adobe Illustrator 17.0.0, SVG Export Plug-In . SVG Version: 6.00 Build 0)  -->
<!DOCTYPE svg PUBLIC "-//W3C//DTD SVG 1.1//EN" "http://www.w3.org/Graphics/SVG/1.1/DTD/svg11.dtd">
<svg version="1.1" id="Layer_1" xmlns="http://www.w3.org/2000/svg" xmlns:xlink="http://www.w3.org/1999/xlink" x="0px" y="0px"
	 width="112px" height="112px" viewBox="0 0 112 112" enable-background="new 0 0 112 112" xml:space="preserve">
<g>
	<path fill="#F2F2F2" d="M43.068,105.572L5.924,67.928c-6.565-6.653-6.565-17.44,0-24.093l0.12-0.122L55.999,94.34l21.328-21.614
		L43.975,38.925l12.007-12.168l45.359,45.969l-32.41,32.846C61.789,112.809,50.21,112.809,43.068,105.572z"/>
	<path fill="#F2F2F2" d="M106.077,43.837L69.33,6.596c-7.362-7.461-19.299-7.461-26.662,0L10.645,39.05l45.338,45.947l12.007-12.168
		L34.658,39.05l21.341-21.628l49.956,50.627l0.12-0.122C112.641,61.276,112.642,50.49,106.077,43.837z"/>
</g>
</svg>
